<?xml version="1.0" encoding="utf-8"?>
<!-- Generator: Adobe Illustrator 21.0.0, SVG Export Plug-In . SVG Version: 6.00 Build 0)  -->
<svg version="1.1" id="Layer_1" xmlns="http://www.w3.org/2000/svg" xmlns:xlink="http://www.w3.org/1999/xlink" x="0px" y="0px"
	 width="1400px" height="980px" viewBox="0 0 1400 980" style="enable-background:new 0 0 1400 980;" xml:space="preserve">
<style type="text/css">
	.st0{fill-rule:evenodd;clip-rule:evenodd;fill:#F5DDAE;}
	.st1{fill-rule:evenodd;clip-rule:evenodd;fill:#FAE4B9;}
	.st2{fill-rule:evenodd;clip-rule:evenodd;fill:#FCECCD;}
	.st3{fill-rule:evenodd;clip-rule:evenodd;fill:#EDD29C;}
	.st4{fill-rule:evenodd;clip-rule:evenodd;fill:#D1AE68;}
	.st5{fill-rule:evenodd;clip-rule:evenodd;fill:#A6884C;}
	.st6{fill-rule:evenodd;clip-rule:evenodd;fill:#806838;}
	.st7{fill-rule:evenodd;clip-rule:evenodd;fill:#FFFFFF;}
</style>
<g>
	<g>
		<g>
			<defs>
				<circle id="SVGID_1_" cx="695.6" cy="437.6" r="36.6"/>
			</defs>
			<clipPath id="SVGID_2_">
				<use xlink:href="#SVGID_1_"  style="overflow:visible;"/>
			</clipPath>
		</g>
		<g>
			<defs>
				<path id="SVGID_3_" d="M632.6,469.7L632.6,469.7c13.9,0,25.2,11.3,25.2,25.2v96.7h-50.4v-96.7
					C607.4,481,618.7,469.7,632.6,469.7z"/>
			</defs>
			<clipPath id="SVGID_4_">
				<use xlink:href="#SVGID_3_"  style="overflow:visible;"/>
			</clipPath>
		</g>
		<g>
			<defs>
				<path id="SVGID_5_" d="M760.7,469.7L760.7,469.7c13.9,0,25.2,11.3,25.2,25.2v96.7h-50.4v-96.7
					C735.5,481,746.8,469.7,760.7,469.7z"/>
			</defs>
			<clipPath id="SVGID_6_">
				<use xlink:href="#SVGID_5_"  style="overflow:visible;"/>
			</clipPath>
		</g>
		<g>
			<defs>
				<path id="SVGID_7_" d="M513.9,558.9L513.9,558.9c8.1,0,14.7,6.6,14.7,14.7v56.3h-29.3v-56.3
					C499.2,565.5,505.8,558.9,513.9,558.9z"/>
			</defs>
			<clipPath id="SVGID_8_">
				<use xlink:href="#SVGID_7_"  style="overflow:visible;"/>
			</clipPath>
		</g>
		<g>
			<defs>
				<path id="SVGID_9_" d="M877.4,558.9L877.4,558.9c8.1,0,14.7,6.6,14.7,14.7v56.3h-29.3v-56.3
					C862.7,565.5,869.3,558.9,877.4,558.9z"/>
			</defs>
			<clipPath id="SVGID_10_">
				<use xlink:href="#SVGID_9_"  style="overflow:visible;"/>
			</clipPath>
		</g>
	</g>
</g>
<g>
	<rect x="0" class="st0" width="1400" height="980"/>
	<path class="st1" d="M0,287.6V980h1400V287.6c-189.2-106.2-433.4-170.2-700-170.2S189.2,181.4,0,287.6z"/>
	<path class="st2" d="M0,479.5V980h1400V479.5c-162.4-138.8-415.6-228.1-700-228.1C415.6,251.3,162.4,340.6,0,479.5z"/>
	<path class="st3" d="M1039.5,456.1c-39.2-20.6-62.9-31.7-103.4-16.1c-115.9,44.6-347.1,219.3-463,134.1
		c-12.2-9-209.9-86.7-234.4-93.9c-32.2-9.4-32.2-8.5-65.2-8.5c-16.2,0-95.1,20-173.5,41.2V980h1400V586.8
		c-20.7-7.9-41-13.6-49.8-16.2C1249.7,541.7,1133.2,505.4,1039.5,456.1z"/>
	<polygon class="st4" points="1387.6,640.9 1350.1,640.9 1350.1,605.9 1354.7,605.9 1354.7,598.9 1337.6,581.8 1337.6,569.4 
		1330.5,569.4 1330.5,581.2 1165,581.2 1156.8,581.7 1144.9,595.7 1144.9,582 1120.8,582 1120.8,562.6 1116.8,562.6 1115.1,565.6 
		1115.1,576.4 1093.4,576.4 1093.4,545.9 1088.2,545.9 1084.8,549.2 1084.8,555.9 1081,555.9 1078.8,553.7 1062.3,553.7 
		1062.3,546.5 1058.9,546.5 1054.7,548.9 1054.7,553.8 1047.5,553.8 1046.8,551.3 1043.2,551.3 1043.2,544.4 1039.5,544.4 
		1039.5,548.4 1009.9,548.4 1009.9,546.4 1005.2,546.4 1002.2,548.1 1002.2,552.3 987.7,552.3 987.7,548.3 979.9,540.5 964.7,540.5 
		954.3,546.5 954.3,552.5 943,552.5 943,545.8 936.5,547.6 936.5,552.5 888.8,552.5 888.8,545.9 882.9,547.5 882.9,552.3 
		870.2,552.3 867.1,555.4 860.6,555.4 860.6,543.5 863.6,543.5 863.6,540.2 860.8,540.2 860.8,516.2 852,516.2 842.7,506.9 
		826.4,506.9 821,501.4 815.2,522.9 804.4,522.9 795.4,517.7 780.4,517.7 774,524.2 770,524.2 766.8,518.6 753.3,518.6 753.3,524.7 
		747.4,518.8 742,518.8 742,541.9 733.7,541.9 733.7,536.4 730.9,535.7 730.9,531.1 727.3,530.2 727.3,518.3 714.3,518.3 
		709.5,513.6 706.8,518.3 704.8,518.3 703.3,523.8 700.6,523.8 700.6,500.8 701.9,500.8 701.9,494.2 683.3,494.2 683.3,500.9 
		684.8,500.9 684.8,521.4 674.6,521.4 674.6,526.3 672.5,526.3 672.5,523 663.7,523 663.7,525.9 659.6,525.9 659.6,520.4 
		653.9,520.4 653.9,526.2 642.9,526.2 642.9,515 617.4,515 617.4,525.6 606.9,525.6 606.9,514 598.9,514 598.9,526.2 595.9,530.8 
		595.9,515.9 585.4,515.9 585.4,533 580.1,542.3 580.1,607.3 572,607.3 565.5,603.6 479,603.6 468.8,621.3 468.8,628.9 464,633.7 
		464,647.2 469.3,647.2 469.3,655.2 449,655.2 444.8,651 437.3,658.5 430.5,658.5 426.3,662.7 421.1,659.7 411.4,659.7 411.4,647 
		408.8,647 407.6,636.2 404.7,636.2 398.9,642 394,637 390.9,642.3 386.8,642.3 386.8,627 383.6,627 383.6,620.6 382.4,620.6 
		381.7,623.2 379.6,623.2 379,621 376.9,621 376.9,623.1 374.4,623.1 366.8,606 361.2,622.9 353.5,622.9 353.5,619.7 352,618.2 
		345.7,618.2 345.7,615.7 341.7,615.7 341.7,619.8 340.1,621.4 331.2,621.4 328.7,619.9 328.7,614.7 324.5,614.7 324.5,618.6 
		319.3,614.9 314.6,617.8 307.4,610.6 307.4,607.4 309.8,607.4 309.8,598.5 306.8,598.5 305.5,594.2 307.6,594.2 307.6,592 
		305.2,592 296.8,581.1 289.3,592.2 287.3,592.2 287.3,594.3 290.1,594.3 287.3,599.3 283.4,599.3 283.4,606.6 286.6,606.6 
		286.5,611.1 280,611.1 274.6,615.5 270.6,603.3 268.1,610.2 262.8,601.1 262.8,581.5 255.5,575.3 248.4,582.1 248.4,601.6 
		246.8,606 233.1,619.6 233.1,617.5 225.5,617.5 225.5,614.1 222.4,611 214.8,611 210.9,615.2 207.3,601.9 207.3,622.2 190.5,622.2 
		190.5,611.3 187.2,609.4 187.2,605.9 167.4,605.9 164.2,607.8 161.3,604.4 155.7,604.4 150.6,607.9 144.7,604.5 137.7,611.6 
		126.8,611.6 126.8,569.2 124.7,568.6 124.7,538 123.2,535.1 120.4,506.6 115.4,536.7 115.4,521.5 113.7,520.7 112.2,503.8 
		110.5,510.2 108.1,510.2 96.7,377.7 83.7,510.9 80.4,510.9 78.7,504.5 77.8,520.8 75.5,521.4 75.5,536.6 71,506.4 68.2,537 
		66.4,540.2 66.5,568.9 62.8,569.9 62.8,620.2 59,601 56.7,622.2 54,626.9 46,626.9 41.6,632.5 24.3,633 22.6,630.5 17.4,630.5 
		15.6,634.4 7.3,634.8 6,643 4.1,643.1 0,634.4 0,980 1400,980 1400,664.6 1393.5,662.9 	"/>
	<polygon class="st5" points="778.2,872.9 764.6,859.4 753.9,859.4 742.4,847.9 732.7,845.3 725.1,816.7 676.3,816.7 676.3,771.1 
		682.3,771.1 682.3,762 660,739.7 660,723.6 650.8,723.6 650.8,739 435.3,739 424.6,739.6 409.1,757.9 409.1,740 377.7,740 
		377.7,714.8 372.6,714.8 370.4,718.6 370.4,732.7 342.1,732.7 342.1,693 335.3,693 330.9,697.4 330.9,706 325.9,706 323.1,703.2 
		301.5,703.2 301.5,693.7 297.1,693.7 291.7,696.9 291.7,703.2 282.3,703.2 281.5,700.1 276.8,700.1 276.8,691.1 271.9,691.1 
		271.9,696.3 233.3,696.3 233.3,693.6 227.2,693.6 223.3,695.8 223.3,701.3 204.5,701.3 204.5,696.1 194.3,685.9 174.6,685.9 
		161,693.8 161,701.6 146.3,701.6 146.3,692.9 137.8,695.2 137.8,701.5 75.7,701.5 75.7,693.1 68,695.1 68,701.4 51.5,701.4 
		47.4,705.4 38.9,705.4 38.9,689.9 42.8,689.9 42.8,685.6 39.2,685.6 39.2,654.4 27.8,654.4 15.6,642.2 6.1,642.2 6,643 4.1,643.1 
		3.7,642.2 0,642.2 0,980 805.5,980 805.5,884.8 793.7,872.9 	"/>
	<path class="st6" d="M1396.5,429.1v-16.7l-7.6-7.6l-9,2.4v9.3h-21.7l-15-40.9l4.9-2.2l-3-4.2v-26.5l2.6-2.6
		c-8.1-26.4-19-40.1-30-41.8v-13.9l6.5-8.9h-7.8l-2-66.5l-2,66.5h-7.8l6.5,8.9v14.2c-9.9,2.7-19.4,15.5-26.4,37.9l3.4,4.6v23.9
		l-7,6.6l5.8,2.8l-17.3,42.1l-14.6,1.1l-2.7-8.9l-12.8-0.8c0,0-8.5,9.4-5.4,15.4c3.1,5.9,3.6,7,3.6,7l-9,32.8l3.8,5.9
		c0,0-5.7,5.1-7.6,10.1c-1.9,5-0.8,18-0.8,18l-0.3,66.4h-17.4l15.5,15.5l1.9,14.3l3.1,0.8v103h-4v-6.3h1.7v-9.1h-9.5v8.8h3v5.8
		h-23.5v-42.3H1168v39.4h-5.5l-16.6-28.8h-15.9v-7.5h3.6V652l-4.5-1.2l-14-19.1l-16.1,18.1h-92.1v3.8h-3.8v40.5h-9v-3.8h2v-22.5
		h-30.8v22.8h2v5.9h-8.5v-4.2h-25.9v7.4H895v-99.4h-74.3v57.2h-76.7l-8.1-6.8h-32.4v4h-4.7v4.2h2.2v5.3h-14.7v-5.1h2.2v-5h-6.2
		l-2.9-5h-27.5l-4.5-16.9h-13.1l-11.7,20.2l4.5,5.5v7.6h-7.6l-4.8-4.8h-38.6l-5.1,5.1h-5.7v1.9l2.8,0.7v9.2h-4.3v2.7h4.2v20
		L530.5,736h-27.8v12l1.4,0.4v33.1l-21.2-11.2l-17.4,17.5l3.6,1.9v5.5h-7.8V790H247.7v-13.6h-67.8v12.2h-8.8v3.1h6.8V822h-54.5v67.5
		H55.9l-17.1-9.9H0V980h1400V468.2v-10.1l-7.8-29H1396.5z"/>
	<g>
		<path class="st3" d="M361,196.2c0.4-5.2-93.7-7.2-101.5-7c-29.2,0.8-43.1-10.5-65.5-15.4c-10-2.2-46.2-0.7-48.9-3.8
			c-19.1-22.4-39.8,12-60-4c-10.5-8.3-31.6,0.2-30.4-4.9c3.2-14.3-14.4-7.7-15.6-7.8c-4.9-0.4-15.8,7.2-17.1,0.7
			c-4-19.6-12.2-28.2-22-29.5v109.9c13.2-0.3,24.4-0.5,31.5,0.1c17,1.4,28.3,4.3,45.2-5.9c11.3-6.9,43.4-9,54.4-3.2
			c11.3,6,53,4.5,59.2-3.9c10.3-14,50.7-6.8,65.2-12.1c7.1-2.6,79.9-4.4,88.4-3.7C350.3,206.1,368,197.6,361,196.2z"/>
		<path class="st3" d="M1255.8,20c-7.1,3.8-36.9-4.9-55.1,11.4c-12.6,11.4-63.1-3.9-93.2,2.2c-17.9,3.7-47.6,0-78.1,6.3
			c-14.9,3.1-29.1,7.4-11.6,10.6c13.9,2.6,58.6,3.3,62.7,11.5c14.4,29,66.4,0.6,93,19.5c4.2,3,45.7-4.3,57.4-4.3
			c12.6,0,25.1,21.4,46.9,23.3c39.3,3.4,22.4,8.6,60.9-7.3c10.7-4.4,35.2-3.3,61.4-1.4V3.4c-14.5,9.6-23.6-3.8-50.9,15.6
			C1335.2,29,1292.4,0.4,1255.8,20z"/>
		<path class="st3" d="M907.8,267.8c0.3-3.6-64.8-5-70.2-4.9c-20.2,0.6-29.8-7.3-45.3-10.7c-6.9-1.5-32-0.5-33.8-2.7
			c-13.2-15.5-27.5,8.3-41.5-2.7c-7.3-5.7-21.8,0.2-21-3.4c2.2-9.9-9.9-5.3-10.8-5.4c-3.4-0.3-10.9,5-11.8,0.5
			c-7-34.4-32.9-19.7-47.6,1.7c-6.3,0-13.8,0.4-20,1.1c-10.5,1.3-28.9,18.5-29.2,25.2c-2,36.6,80.6,25.8,103.4,27.7
			c11.8,1,19.6,3,31.3-4.1c7.8-4.7,30-6.2,37.6-2.2c7.8,4.2,36.7,3.1,40.9-2.7c7.1-9.7,35.1-4.7,45.1-8.4c4.9-1.8,55.3-3.1,61.1-2.6
			C900.4,274.7,912.6,268.8,907.8,267.8z"/>
	</g>
	<path class="st4" d="M330.9,476.6c-2.3,6.7-20.4,4.3-27,4.3c-11.2,0-61.5-4.8-57.4,10.5c1.4,5.2,27.4,2.1,32.4,4.7l11.2,5.8
		c6.1,3.2,13.2,1.9,19.8,1.4c1.2-0.1,6-0.9,1.2-2.6c-3.3-1.2-6.9-4-11.7-6.3l21.2,0.1c13,0.1,16.5-3.3,16.5-15.3
		C337.2,472.6,333.1,470.4,330.9,476.6z"/>
	<path class="st6" d="M1180.6,596.8c-3.3-0.4-2.9,0.4-2.7-3.7c0-0.9-3.9-1-4.1-0.4c-0.6,1.4,2,3.7-1.6,3.8c-0.3,0-0.5-0.2-0.9-0.3
		c-1.7-0.7-6.1-2.3-7.2,0.9c-2.3,0.8,4.4,0.8,4.9,1.4c0.2,0.2,1.4,1.2,1.5,1.2c0.2,0.5,0.8,0.7,1.4,2.5c0.2,0.7-0.7,1.2-0.7,2.7
		c0.6,0,1-1.9,2.7-1.9c0.1,0,1.8-0.2,2-0.4c1.9-2.2,4.8-1.1,7.4-0.8c0.8,0.1,3.8,2.4,2.5-1.3
		C1185.1,598.6,1182.4,597.1,1180.6,596.8z"/>
	<path class="st6" d="M1201.9,586.2c-2.4-1-2.6,0.3-3.4,0.8c-3.2,2-1,0.3-3.3-1.1c-1.6-1-4.1-1.7-4.6-2c-0.9-0.6-3.2,3.9-2.6,5.7
		c0.2,0.3,0.8,0.5,1.1,0.5c3.6-0.1,0.7-0.7,2.1-2.5c0.5-0.6,2.8,2.1,3.2,2.7c1.1,1.9-0.6,2.4-0.2,3.1c0.7,1.1,0.8-1.1,1.7-1.1
		c1.5,0.1,1,1.3,1,2.3c0.2,0,4-2.7,1.8-3.7c3.1,0.6,3.1,0.1,5.2,2.6c0.9,1.1,0.7,2.2,1.8,1.6
		C1206.5,594.9,1205.9,587.9,1201.9,586.2z"/>
</g>
</svg>
