<?xml version="1.0" encoding="utf-8"?>
<!-- Generator: Adobe Illustrator 16.0.0, SVG Export Plug-In . SVG Version: 6.00 Build 0)  -->
<!DOCTYPE svg PUBLIC "-//W3C//DTD SVG 1.1//EN" "http://www.w3.org/Graphics/SVG/1.1/DTD/svg11.dtd">
<svg version="1.1" id="Layer_1" xmlns="http://www.w3.org/2000/svg" xmlns:xlink="http://www.w3.org/1999/xlink" x="0px" y="0px"
	 width="2044.4px" height="1400px" viewBox="0 0 2044.4 1400" enable-background="new 0 0 2044.4 1400" xml:space="preserve">
<g>
	<g>
		<rect y="1174.8" fill="#FFDCA6" width="2044.4" height="73.9"/>
		<rect fill="#9AFFD0" width="2044.4" height="1174.8"/>
	</g>
	<path fill="#88E0B7" d="M594.1,366.7H436.4h-27.2c-10.9,0-19.7-8.8-19.7-19.8c0-10.9,8.8-19.7,19.7-19.7h27.2h35.3
		c17.8,0,32.2-14.4,32.2-32.2c0-17.8-14.4-32.2-32.2-32.2H285.5h-1.6v0.1c-56.6,0.9-102.3,47-102.3,103.8c0,21.2,6.4,40.9,17.3,57.3
		c0.4,0.4,0.7,1.1,1,1.5c2.1,2.7,3.6,5.9,3.6,9.6c0,8.7-7,15.7-15.7,15.7h-18.6h-9.6c-17.4,0-31.6,14.1-31.6,31.6
		s14.1,31.6,31.6,31.6h102.7h18.6c8.7,0,15.7,7,15.7,15.7c0,8.7-7,15.7-15.7,15.7h-18.6h-9.7c-15.9,0-28.8,12.9-28.8,28.8
		c0,15.9,12.9,28.8,28.8,28.8h26.1h3.2c12.2,0,22.1,9.9,22.1,22.1V668h138V561.7c0-12.2,9.9-22.1,22.1-22.1h3.2h0.3
		c14.4,0,26.2-11.7,26.2-26.1c0-14.5-11.7-26.2-26.2-26.2h-0.9h-3.2c-10.5,0-19.3-7.4-21.5-17.2v-9.7c2.2-9.8,11-17.2,21.5-17.2h3.2
		h127.6c21.1,0,38.2-17.1,38.2-38.2C632.4,383.8,615.3,366.7,594.1,366.7z"/>
	<g>
		<g>
			<polygon fill="#5B7391" points="476.5,668 291.4,668 0,968.4 0,1115.5 319.4,747 553.2,747 			"/>
		</g>
		<polygon fill="#4B5E77" points="0,1175.2 968.4,1175.2 553.2,747 319.4,747 0,1115.5 		"/>
	</g>
	<g>
		<polygon fill="#FFFFFF" points="1103.6,331.6 854.1,588.9 960.2,668 		"/>
		<polygon fill="#6D6E70" points="854.1,588.9 285.5,1175.2 744.1,1175.2 960.2,668 		"/>
		<polygon fill="#58595B" points="1405.8,643.3 1351.4,694.1 1290.3,632.7 1239.5,816.9 1142.2,619.7 1065.9,700 960.2,668 
			960.2,668 744.1,1175.2 1921.6,1175.2 		"/>
		<polygon fill="#F5F5F5" points="960.2,668 1065.9,700 1142.2,619.7 1239.5,816.9 1290.3,632.7 1351.4,694.1 1405.8,643.3 
			1103.6,331.6 960.2,668 		"/>
	</g>
	<g>
		<polygon fill="#6A7BA3" points="1198.5,1176.2 1591.2,1175.8 1784.2,572.4 		"/>
		<polygon fill="#5D6B8E" points="2044.4,840.7 1784.2,572.4 1591.2,1175.8 2044.4,1175.4 		"/>
	</g>
	<path fill="#E0C090" d="M1476,1193.8c0-5.7-4.6-10.3-10.3-10.3h-82.8c-5.7,0-10.3,4.6-10.3,10.3l0,0c0,5.7,4.6,10.3,10.3,10.3h82.8
		C1471.3,1204.1,1476,1199.5,1476,1193.8L1476,1193.8z"/>
	<path fill="#E0C090" d="M873,1193.8c0-5.7-4.6-10.3-10.3-10.3h-82.8c-5.7,0-10.3,4.6-10.3,10.3l0,0c0,5.7,4.6,10.3,10.3,10.3h82.8
		C868.4,1204.1,873,1199.5,873,1193.8L873,1193.8z"/>
	<path fill="#E0C090" d="M674.6,1193.8c0-5.7-4.6-10.3-10.3-10.3h-82.8c-5.7,0-10.3,4.6-10.3,10.3l0,0c0,5.7,4.6,10.3,10.3,10.3
		h82.8C670,1204.1,674.6,1199.5,674.6,1193.8L674.6,1193.8z"/>
	<path fill="#E0C090" d="M371.9,1211.7c0-5.7-4.6-10.3-10.3-10.3h-275c-5.7,0-10.3,4.6-10.3,10.3l0,0c0,5.7,4.6,10.3,10.3,10.3h275
		C367.3,1222,371.9,1217.4,371.9,1211.7L371.9,1211.7z"/>
	<path fill="#E0C090" d="M1243.4,1193.8c0-5.7-4.6-10.3-10.3-10.3h-259c-5.7,0-10.3,4.6-10.3,10.3l0,0c0,5.7,4.6,10.3,10.3,10.3h259
		C1238.7,1204.1,1243.4,1199.5,1243.4,1193.8L1243.4,1193.8z"/>
	<path fill="#E0C090" d="M1907.5,1193.8c0-5.7-4.6-10.3-10.3-10.3h-318c-5.7,0-10.3,4.6-10.3,10.3l0,0c0,5.7,4.6,10.3,10.3,10.3h318
		C1902.9,1204.1,1907.5,1199.5,1907.5,1193.8L1907.5,1193.8z"/>
	<g>
		<path fill="#00B36D" d="M1677.8,986.8v207h103.5V883.3C1724.2,883.3,1677.8,929.6,1677.8,986.8z"/>
		<path fill="#009E61" d="M1884.8,986.8c0-57.2-46.3-103.5-103.5-103.5v310.5h103.5V986.8z"/>
	</g>
	<g>
		<path fill="#00B36D" d="M751.7,1036.1v139.1h69.6V966.5C782.8,966.5,751.7,997.7,751.7,1036.1z"/>
		<path fill="#009E61" d="M890.8,1036.1c0-38.4-31.1-69.5-69.5-69.5v208.6h69.5V1036.1z"/>
	</g>
	<g>
		<path fill="#00B36D" d="M528.3,1068.5v106.7h53.4v-160.1C552.2,1015.1,528.3,1039,528.3,1068.5z"/>
		<path fill="#009E61" d="M635.1,1068.5c0-29.5-23.9-53.4-53.4-53.4v160.1h53.4V1068.5z"/>
	</g>
	<g>
		<path fill="#00B36D" d="M983.6,868.8v324.9h115.2V753.7C1035.1,753.7,983.6,805.2,983.6,868.8z"/>
		<path fill="#009E61" d="M1214,868.8c0-63.6-51.6-115.2-115.2-115.2v440.1H1214V868.8z"/>
	</g>
	<g>
		<g>
			<path fill="#E69937" d="M1243.5,732.2h0.1l29.7,29.7c0,0,29.1-29,29.7-29.7h0.1l29.7,29.7c0,0,29-29,29.7-29.7h0.1l29.7,29.7
				c0,0,29-29,29.7-29.7h0.1l29.7,29.7c0,0,29-29,29.7-29.7h0.1l29.7,29.7c0,0,29.1-29,29.7-29.7h0.1l29.7,29.7
				c0,0,29.1-29,29.7-29.7h0.1l29.7,29.7c0,0,7.4-7.4,14.8-14.9v-29.7h-446.7v29.5l15.3,15.1
				C1213.8,761.9,1242.8,732.9,1243.5,732.2z"/>
			<path fill="#FFAC3C" d="M1630.5,761.9l-29.7-29.7h-0.1c-0.7,0.7-29.7,29.7-29.7,29.7l-29.7-29.7h-0.1
				c-0.7,0.7-29.7,29.7-29.7,29.7l-29.7-29.7h-0.1c-0.7,0.7-29.7,29.7-29.7,29.7l-29.7-29.7h-0.1c-0.7,0.7-29.7,29.7-29.7,29.7
				l-29.7-29.7h-0.1c-0.7,0.7-29.7,29.7-29.7,29.7l-29.7-29.7h-0.1c-0.6,0.7-29.7,29.7-29.7,29.7l-29.7-29.7h-0.1
				c-0.7,0.7-29.7,29.7-29.7,29.7l-15.3-15.1v243h446.7V747C1637.9,754.4,1630.4,761.9,1630.5,761.9z"/>
		</g>
		<path fill="#FFBD54" d="M1660.9,693.2c-2.4-10.9-9.1-24.5-25.1-38.3l-145.2-144.8c0,0-39.6-39.6-68.7-39.6v222.6H1660.9z"/>
		<path fill="#FFEDA3" d="M1421.9,470.6c-29.1,0-68.7,39.6-68.7,39.6L1208,655c-16,13.8-22.7,27.3-25.1,38.3h239V470.6z"/>
		<path fill="#FFEDA3" d="M1660.9,693.2h-239h-239c-3.2,14.3,0.9,24.1,0.9,24.1l30,29.7c0,0,29-29,29.7-29.7h0.1l29.7,29.7
			c0,0,29.1-29,29.7-29.7h0.1l29.7,29.7c0,0,29-29,29.7-29.7h0.1l29.7,29.7c0,0,29-29,29.7-29.7h0.1l29.7,29.7c0,0,29-29,29.7-29.7
			h0.1l29.7,29.7c0,0,29.1-29,29.7-29.7h0.1l29.7,29.7c0,0,29.1-29,29.7-29.7h0.1l29.7,29.7c0,0,29.6-29.7,29.6-29.7
			S1664.1,707.5,1660.9,693.2z"/>
		<rect x="1198.5" y="989.8" fill="#674B3D" width="446.7" height="44.8"/>
		<rect x="1339" y="784.1" fill="#E69937" width="165.8" height="165.8"/>
		<rect x="1198.5" y="886.5" fill="#674B3D" width="30.8" height="361.5"/>
		<rect x="1308.2" y="886.5" fill="#674B3D" width="30.8" height="361.5"/>
		<rect x="1220.3" y="1183.5" fill="#674B3D" width="103.2" height="20.7"/>
		<rect x="1220.3" y="1122.8" fill="#674B3D" width="103.2" height="20.7"/>
		<rect x="1220.3" y="1062.1" fill="#674B3D" width="103.2" height="20.6"/>
		<rect x="1220.3" y="939.6" fill="#674B3D" width="103.2" height="20.7"/>
		<rect x="1596.1" y="1034.6" fill="#674B3D" width="49.2" height="159.2"/>
		<rect x="1397.3" y="1034.6" fill="#674B3D" width="49.2" height="159.2"/>
		<g>
			<polygon fill="#7DCDE8" points="1362.2,807.3 1362.2,926.7 1481.6,807.3 			"/>
			<polygon fill="#5BC2E3" points="1362.2,926.7 1481.6,926.7 1481.6,807.3 			"/>
		</g>
	</g>
	<g>
		<g>
			<path fill="#E69937" d="M444.1,732.2h0.1l29.7,29.7c0,0,29-29,29.7-29.7h0.1l29.7,29.7c0,0,29-29,29.7-29.7h0.1l29.7,29.7
				c0,0,29-29,29.7-29.7h0.1l29.7,29.7c0,0,29-29,29.7-29.7h0.1l29.7,29.7c0,0,29.1-29,29.7-29.7h0.1l29.7,29.7c0,0,29-29,29.7-29.7
				h0.1l29.7,29.7c0,0,7.4-7.4,14.8-14.9v-29.7H399.1v29.5l15.3,15.1C414.4,761.9,443.4,732.9,444.1,732.2z"/>
			<path fill="#FFAC3C" d="M831,761.9l-29.7-29.7h-0.1c-0.7,0.7-29.7,29.7-29.7,29.7l-29.7-29.7h-0.1c-0.7,0.7-29.7,29.7-29.7,29.7
				l-29.7-29.7h-0.1c-0.7,0.7-29.7,29.7-29.7,29.7l-29.7-29.7h-0.1c-0.7,0.7-29.7,29.7-29.7,29.7l-29.7-29.7h-0.1
				c-0.7,0.7-29.7,29.7-29.7,29.7l-29.7-29.7h-0.1c-0.6,0.7-29.7,29.7-29.7,29.7l-29.7-29.7h-0.1c-0.7,0.7-29.7,29.7-29.7,29.7
				l-15.3-15.1v243h446.7V747C838.4,754.4,831,761.9,831,761.9z"/>
		</g>
		<path fill="#FFBD54" d="M861.5,693.2c-2.4-10.9-9.1-24.5-25.1-38.3L691.2,510.2c0,0-39.6-39.6-68.7-39.6v222.6H861.5z"/>
		<path fill="#FFEDA3" d="M622.5,470.6c-29.1,0-68.7,39.6-68.7,39.6L408.5,655c-16,13.8-22.6,27.3-25.1,38.3h239V470.6z"/>
		<path fill="#FFEDA3" d="M861.5,693.2h-239h-239c-3.2,14.3,0.9,24.1,0.9,24.1l30,29.7c0,0,29-29,29.7-29.7h0.1l29.7,29.7
			c0,0,29-29,29.7-29.7h0.1l29.7,29.7c0,0,29-29,29.7-29.7h0.1l29.7,29.7c0,0,29-29,29.7-29.7h0.1l29.7,29.7c0,0,29-29,29.7-29.7
			h0.1L712,747c0,0,29.1-29,29.7-29.7h0.1l29.7,29.7c0,0,29-29,29.7-29.7h0.1L831,747c0,0,29.6-29.7,29.6-29.7
			S864.7,707.5,861.5,693.2z"/>
		<rect x="399.1" y="989.8" fill="#674B3D" width="446.7" height="44.8"/>
		<rect x="539.5" y="784.1" fill="#E69937" width="165.9" height="165.8"/>
		<rect x="399.1" y="886.5" fill="#674B3D" width="30.8" height="361.5"/>
		<rect x="508.7" y="886.5" fill="#674B3D" width="30.8" height="361.5"/>
		<rect x="420.9" y="1183.5" fill="#674B3D" width="103.3" height="20.7"/>
		<rect x="420.9" y="1122.8" fill="#674B3D" width="103.3" height="20.7"/>
		<rect x="420.9" y="1062.1" fill="#674B3D" width="103.3" height="20.6"/>
		<rect x="420.9" y="939.6" fill="#674B3D" width="103.3" height="20.7"/>
		<rect x="796.6" y="1034.6" fill="#674B3D" width="49.2" height="159.2"/>
		<rect x="597.9" y="1034.6" fill="#674B3D" width="49.2" height="159.2"/>
		<g>
			<polygon fill="#7DCDE8" points="562.7,807.3 562.7,926.7 682.2,807.3 			"/>
			<polygon fill="#5BC2E3" points="562.7,926.7 682.2,926.7 682.2,807.3 			"/>
		</g>
	</g>
	<path fill="#FFFFFF" d="M795.8,294.9c0-14.3-11.6-25.8-25.9-25.8H631.7c-14.3,0-25.8,11.6-25.8,25.8l0,0
		c0,14.3,11.6,25.9,25.8,25.9H770C784.3,320.8,795.8,309.2,795.8,294.9L795.8,294.9z"/>
	<path fill="#FFFFFF" d="M660.8,182.4c0-14.1-11.4-25.6-25.5-25.6H490.3c-14.1,0-25.5,11.4-25.5,25.6l0,0
		c0,14.1,11.4,25.5,25.5,25.5h144.9C649.3,207.9,660.8,196.5,660.8,182.4L660.8,182.4z"/>
	<path fill="#FFFFFF" d="M922.9,301.2c0,17.7-14.4,32.1-32.1,32.1c-17.7,0-32.1-14.4-32.1-32.1c0-17.7,14.4-32.1,32.1-32.1
		C908.5,269.1,922.9,283.5,922.9,301.2z"/>
	<path fill="#FFFFFF" d="M404,182.4c0,15.6-12.6,28.2-28.2,28.2c-15.6,0-28.2-12.6-28.2-28.2c0-15.6,12.6-28.2,28.2-28.2
		C391.3,154.1,404,166.8,404,182.4z"/>
	<rect x="173" y="1073.7" fill="#674B3D" width="65.7" height="98.1"/>
	<g>
		<path fill="#009E61" d="M205.9,775.6v64.7c53.1,0,96.1,43,96.1,96.1c0,53.1-43,96.1-96.1,96.1v64.7c88.8,0,160.8-72,160.8-160.8
			C366.7,847.6,294.7,775.6,205.9,775.6z"/>
		<path fill="#00B36D" d="M205.9,840.4v-64.7c-88.8,0-160.8,72-160.8,160.8c0,88.8,72,160.8,160.8,160.8v-64.7
			c53.1,0,96.1-43,96.1-96.1C302,883.4,259,840.4,205.9,840.4z"/>
	</g>
	<g>
		<path fill="#2EF0F0" d="M0,1248.6v55c11.7,12.4,31.4,20.6,54.2,20.6c32.6,0,59.5-16.8,64.4-38.7h0.2c4.9,21.9,31.8,38.7,64.4,38.7
			c32.6,0,59.5-16.8,64.4-38.7h0.2c4.9,21.9,31.8,38.7,64.4,38.7c32.6,0,59.5-16.8,64.4-38.7h0.2c4.9,21.9,31.8,38.7,64.4,38.7
			c32.6,0,59.5-16.8,64.4-38.7h0.2c4.9,21.9,31.8,38.7,64.4,38.7c32.6,0,59.5-16.8,64.4-38.7h0.2c4.9,21.9,31.8,38.7,64.4,38.7
			c32.6,0,59.5-16.8,64.4-38.7h0.2c4.9,21.9,31.8,38.7,64.4,38.7c32.6,0,59.5-16.8,64.4-38.7h0.2c4.9,21.9,31.9,38.7,64.4,38.7
			c32.6,0,59.5-16.8,64.4-38.7h0.2c4.9,21.9,31.8,38.7,64.4,38.7c32.6,0,59.5-16.8,64.4-38.7h0.2c4.9,21.9,31.8,38.7,64.4,38.7
			c32.6,0,59.5-16.8,64.4-38.7h0.2c4.9,21.9,31.8,38.7,64.4,38.7c32.6,0,59.5-16.8,64.4-38.7h0.2c4.9,21.9,31.8,38.7,64.4,38.7
			c32.6,0,59.5-16.8,64.4-38.7h0.2c4.9,21.9,31.8,38.7,64.4,38.7c32.6,0,59.5-16.8,64.4-38.7h0.2c4.9,21.9,31.8,38.7,64.4,38.7
			c32.6,0,59.5-16.8,64.4-38.7h0.2c4.9,21.9,31.8,38.7,64.4,38.7c32.6,0,59.5-16.8,64.4-38.7h0.2c4.9,21.9,31.8,38.7,64.4,38.7
			c23.2,0,43.4-8.6,54.9-21.4v-54.3H0z"/>
		<path fill="#2ADBDB" d="M1989.4,1324.3c-32.6,0-59.5-16.8-64.4-38.7h-0.2c-4.9,21.9-31.8,38.7-64.4,38.7
			c-32.6,0-59.5-16.8-64.4-38.7h-0.2c-4.9,21.9-31.8,38.7-64.4,38.7c-32.6,0-59.5-16.8-64.4-38.7h-0.2
			c-4.9,21.9-31.8,38.7-64.4,38.7c-32.6,0-59.5-16.8-64.4-38.7h-0.2c-4.9,21.9-31.8,38.7-64.4,38.7c-32.6,0-59.5-16.8-64.4-38.7
			h-0.2c-4.9,21.9-31.8,38.7-64.4,38.7c-32.6,0-59.5-16.8-64.4-38.7h-0.2c-4.9,21.9-31.8,38.7-64.4,38.7
			c-32.6,0-59.5-16.8-64.4-38.7h-0.2c-4.9,21.9-31.8,38.7-64.4,38.7c-32.6,0-59.5-16.8-64.4-38.7h-0.2
			c-4.9,21.9-31.8,38.7-64.4,38.7c-32.6,0-59.5-16.8-64.4-38.7h-0.2c-4.9,21.9-31.8,38.7-64.4,38.7c-32.6,0-59.5-16.8-64.4-38.7
			h-0.2c-4.9,21.9-31.8,38.7-64.4,38.7c-32.6,0-59.5-16.8-64.4-38.7h-0.2c-4.9,21.9-31.8,38.7-64.4,38.7
			c-32.6,0-59.5-16.8-64.4-38.7h-0.2c-4.9,21.9-31.8,38.7-64.4,38.7c-32.6,0-59.5-16.8-64.4-38.7h-0.2
			c-4.9,21.9-31.8,38.7-64.4,38.7c-32.6,0-59.5-16.8-64.4-38.7h-0.2c-4.9,21.9-31.8,38.7-64.4,38.7c-32.6,0-59.5-16.8-64.4-38.7
			h-0.2c-4.9,21.9-31.8,38.7-64.4,38.7c-22.7,0-42.5-8.3-54.2-20.6v96.3h2044.4v-97.1C2032.8,1315.7,2012.7,1324.3,1989.4,1324.3z"
			/>
	</g>
	<g>
		<polygon fill="#BCBEC0" points="228.2,1212.7 232.9,1174.1 257.8,1137.8 187.2,1147.5 167.6,1167.3 102.4,1212.7 		"/>
		<polygon fill="#A7A9AB" points="357.8,1212.7 331.5,1176.9 274.1,1167.3 258.6,1137.7 257.8,1137.8 232.9,1174.1 228.2,1212.7 		
			"/>
	</g>
	<path fill="#FFD76A" d="M1712.7,294.9c0,37.3-30.2,67.5-67.5,67.5c-37.3,0-67.4-30.2-67.4-67.5c0-37.3,30.2-67.4,67.4-67.4
		C1682.5,227.5,1712.7,257.7,1712.7,294.9z"/>
	<g>
		<path fill="#FFF5CB" d="M1645.2,427.4c-73,0-132.5-59.4-132.5-132.5c0-73,59.4-132.5,132.5-132.5s132.5,59.4,132.5,132.5
			C1777.7,368,1718.3,427.4,1645.2,427.4z M1645.2,189.2c-58.3,0-105.8,47.4-105.8,105.8c0,58.3,47.4,105.8,105.8,105.8
			c58.3,0,105.8-47.4,105.8-105.8C1751,236.6,1703.6,189.2,1645.2,189.2z"/>
	</g>
	<path fill="#FFFFFF" d="M1107.2,130.8c-22.5,0-41.9,12.2-52.7,30.1c-0.8-0.1-1.5-0.2-2.2-0.2h-45.5c0.1-0.7,0.2-1.5,0.2-2.2
		c0-11.4-9.2-20.6-20.6-20.6h-120c-11.4,0-20.6,9.2-20.6,20.6c0,11.4,9.2,20.6,20.6,20.6h55.9c-1.9,4.1-3,8.6-3,13.4
		c0,17.5,14.2,31.7,31.7,31.7h101.3c0.8,0,1.5-0.2,2.2-0.2c10.8,18,30.2,30.1,52.7,30.1c34,0,61.6-27.6,61.6-61.6
		C1168.8,158.4,1141.2,130.8,1107.2,130.8z"/>
	<g>
		<path fill="#FFFFFF" d="M1433.4,345.9h-9.6c1.8-3.6,3-7.5,3-11.8c0-14.4-11.6-26-26-26h-153.1c-14.4,0-26,11.6-26,26
			c0,14.4,11.6,26,26,26h66.5c-1.1,2.7-1.7,5.6-1.7,8.6c0,12.6,10.2,22.8,22.8,22.8h98.1c12.6,0,22.8-10.2,22.8-22.8
			C1456.2,356.1,1446,345.9,1433.4,345.9z"/>
		<path fill="#FFFFFF" d="M1319.5,260.5c13.7,0,24.8-11.1,24.8-24.8c0-13.7-11.1-24.8-24.8-24.8c-13.7,0-24.8,11.1-24.8,24.8
			C1294.7,249.4,1305.8,260.5,1319.5,260.5z"/>
	</g>
	<path fill="#FFFFFF" d="M1923.2,451.1h-2.2c-3.6-28.8-27.7-51.3-57.5-51.3c-29.8,0-53.9,22.5-57.5,51.3h-43.5
		c-13.4,0-24.3,10.9-24.3,24.3c0,13.4,10.9,24.3,24.3,24.3h160.7c13.4,0,24.3-10.9,24.3-24.3C1947.5,462,1936.6,451.1,1923.2,451.1z
		"/>
	<path fill="#FFFFFF" d="M1612.1,215.1c0-11.4-9.2-20.6-20.6-20.6h-124.5c-11.4,0-20.6,9.2-20.6,20.6l0,0c0,11.4,9.2,20.6,20.6,20.6
		h124.5C1602.9,235.7,1612.1,226.5,1612.1,215.1L1612.1,215.1z"/>
</g>
</svg>
